<mxfile host="Electron" agent="Mozilla/5.0 (Windows NT 10.0; Win64; x64) AppleWebKit/537.36 (KHTML, like Gecko) draw.io/24.7.8 Chrome/128.0.6613.36 Electron/32.0.1 Safari/537.36" version="24.7.8">
  <diagram name="PÃ¡gina-1" id="BqArG_INnbN-6tWxqkAn">
    <mxGraphModel dx="1295" dy="758" grid="1" gridSize="10" guides="1" tooltips="1" connect="1" arrows="1" fold="1" page="1" pageScale="1" pageWidth="1169" pageHeight="827" math="0" shadow="0">
      <root>
        <mxCell id="0" />
        <mxCell id="1" parent="0" />
        <mxCell id="rMtfNiZEHgZC2uwS-4zO-45" value="1:N" style="edgeStyle=none;rounded=0;orthogonalLoop=1;jettySize=auto;html=1;" edge="1" parent="1" source="rMtfNiZEHgZC2uwS-4zO-11" target="rMtfNiZEHgZC2uwS-4zO-44">
          <mxGeometry relative="1" as="geometry" />
        </mxCell>
        <mxCell id="rMtfNiZEHgZC2uwS-4zO-11" value="CLIENTE" style="whiteSpace=wrap;html=1;align=center;" vertex="1" parent="1">
          <mxGeometry x="110" y="413.5" width="100" height="40" as="geometry" />
        </mxCell>
        <mxCell id="rMtfNiZEHgZC2uwS-4zO-34" style="edgeStyle=none;rounded=0;orthogonalLoop=1;jettySize=auto;html=1;" edge="1" parent="1" source="rMtfNiZEHgZC2uwS-4zO-12" target="rMtfNiZEHgZC2uwS-4zO-11">
          <mxGeometry relative="1" as="geometry" />
        </mxCell>
        <mxCell id="rMtfNiZEHgZC2uwS-4zO-12" value="NOMBRE" style="ellipse;whiteSpace=wrap;html=1;align=center;" vertex="1" parent="1">
          <mxGeometry x="20" y="330" width="100" height="40" as="geometry" />
        </mxCell>
        <mxCell id="rMtfNiZEHgZC2uwS-4zO-36" style="edgeStyle=none;rounded=0;orthogonalLoop=1;jettySize=auto;html=1;" edge="1" parent="1" source="rMtfNiZEHgZC2uwS-4zO-13" target="rMtfNiZEHgZC2uwS-4zO-11">
          <mxGeometry relative="1" as="geometry" />
        </mxCell>
        <mxCell id="rMtfNiZEHgZC2uwS-4zO-13" value="ID" style="ellipse;whiteSpace=wrap;html=1;align=center;" vertex="1" parent="1">
          <mxGeometry x="180" y="330" width="100" height="40" as="geometry" />
        </mxCell>
        <mxCell id="rMtfNiZEHgZC2uwS-4zO-35" style="edgeStyle=none;rounded=0;orthogonalLoop=1;jettySize=auto;html=1;" edge="1" parent="1" source="rMtfNiZEHgZC2uwS-4zO-14" target="rMtfNiZEHgZC2uwS-4zO-11">
          <mxGeometry relative="1" as="geometry" />
        </mxCell>
        <mxCell id="rMtfNiZEHgZC2uwS-4zO-14" value="CONTACTO" style="ellipse;whiteSpace=wrap;html=1;align=center;" vertex="1" parent="1">
          <mxGeometry x="20" y="490" width="100" height="40" as="geometry" />
        </mxCell>
        <mxCell id="rMtfNiZEHgZC2uwS-4zO-38" style="edgeStyle=none;rounded=0;orthogonalLoop=1;jettySize=auto;html=1;" edge="1" parent="1" source="rMtfNiZEHgZC2uwS-4zO-15" target="rMtfNiZEHgZC2uwS-4zO-11">
          <mxGeometry relative="1" as="geometry" />
        </mxCell>
        <mxCell id="rMtfNiZEHgZC2uwS-4zO-15" value="DOMICILIO" style="ellipse;whiteSpace=wrap;html=1;align=center;" vertex="1" parent="1">
          <mxGeometry x="180" y="490" width="100" height="40" as="geometry" />
        </mxCell>
        <mxCell id="rMtfNiZEHgZC2uwS-4zO-46" value="N:1" style="edgeStyle=none;rounded=0;orthogonalLoop=1;jettySize=auto;html=1;" edge="1" parent="1" source="rMtfNiZEHgZC2uwS-4zO-27" target="rMtfNiZEHgZC2uwS-4zO-44">
          <mxGeometry relative="1" as="geometry" />
        </mxCell>
        <mxCell id="rMtfNiZEHgZC2uwS-4zO-27" value="MASCOTA" style="whiteSpace=wrap;html=1;align=center;" vertex="1" parent="1">
          <mxGeometry x="860" y="408.5" width="100" height="40" as="geometry" />
        </mxCell>
        <mxCell id="rMtfNiZEHgZC2uwS-4zO-40" style="edgeStyle=none;rounded=0;orthogonalLoop=1;jettySize=auto;html=1;" edge="1" parent="1" source="rMtfNiZEHgZC2uwS-4zO-29" target="rMtfNiZEHgZC2uwS-4zO-27">
          <mxGeometry relative="1" as="geometry" />
        </mxCell>
        <mxCell id="rMtfNiZEHgZC2uwS-4zO-29" value="NOMBRE" style="ellipse;whiteSpace=wrap;html=1;align=center;" vertex="1" parent="1">
          <mxGeometry x="785" y="318.5" width="100" height="40" as="geometry" />
        </mxCell>
        <mxCell id="rMtfNiZEHgZC2uwS-4zO-41" style="edgeStyle=none;rounded=0;orthogonalLoop=1;jettySize=auto;html=1;" edge="1" parent="1" source="rMtfNiZEHgZC2uwS-4zO-30" target="rMtfNiZEHgZC2uwS-4zO-27">
          <mxGeometry relative="1" as="geometry" />
        </mxCell>
        <mxCell id="rMtfNiZEHgZC2uwS-4zO-30" value="ID" style="ellipse;whiteSpace=wrap;html=1;align=center;" vertex="1" parent="1">
          <mxGeometry x="935" y="318.5" width="100" height="40" as="geometry" />
        </mxCell>
        <mxCell id="rMtfNiZEHgZC2uwS-4zO-39" style="edgeStyle=none;rounded=0;orthogonalLoop=1;jettySize=auto;html=1;" edge="1" parent="1" source="rMtfNiZEHgZC2uwS-4zO-31" target="rMtfNiZEHgZC2uwS-4zO-27">
          <mxGeometry relative="1" as="geometry" />
        </mxCell>
        <mxCell id="rMtfNiZEHgZC2uwS-4zO-31" value="RAZA" style="ellipse;whiteSpace=wrap;html=1;align=center;" vertex="1" parent="1">
          <mxGeometry x="785" y="490" width="100" height="40" as="geometry" />
        </mxCell>
        <mxCell id="rMtfNiZEHgZC2uwS-4zO-43" style="edgeStyle=none;rounded=0;orthogonalLoop=1;jettySize=auto;html=1;" edge="1" parent="1" source="rMtfNiZEHgZC2uwS-4zO-32" target="rMtfNiZEHgZC2uwS-4zO-27">
          <mxGeometry relative="1" as="geometry" />
        </mxCell>
        <mxCell id="rMtfNiZEHgZC2uwS-4zO-32" value="EDAD" style="ellipse;whiteSpace=wrap;html=1;align=center;" vertex="1" parent="1">
          <mxGeometry x="935" y="490" width="100" height="40" as="geometry" />
        </mxCell>
        <mxCell id="rMtfNiZEHgZC2uwS-4zO-42" style="edgeStyle=none;rounded=0;orthogonalLoop=1;jettySize=auto;html=1;" edge="1" parent="1" source="rMtfNiZEHgZC2uwS-4zO-33" target="rMtfNiZEHgZC2uwS-4zO-27">
          <mxGeometry relative="1" as="geometry" />
        </mxCell>
        <mxCell id="rMtfNiZEHgZC2uwS-4zO-33" value="COLOR" style="ellipse;whiteSpace=wrap;html=1;align=center;" vertex="1" parent="1">
          <mxGeometry x="1020" y="408.5" width="100" height="40" as="geometry" />
        </mxCell>
        <mxCell id="rMtfNiZEHgZC2uwS-4zO-37" style="edgeStyle=none;rounded=0;orthogonalLoop=1;jettySize=auto;html=1;exitX=1;exitY=1;exitDx=0;exitDy=0;" edge="1" parent="1" source="rMtfNiZEHgZC2uwS-4zO-11" target="rMtfNiZEHgZC2uwS-4zO-11">
          <mxGeometry relative="1" as="geometry" />
        </mxCell>
        <mxCell id="rMtfNiZEHgZC2uwS-4zO-68" style="edgeStyle=none;rounded=0;orthogonalLoop=1;jettySize=auto;html=1;" edge="1" parent="1" source="rMtfNiZEHgZC2uwS-4zO-44" target="rMtfNiZEHgZC2uwS-4zO-67">
          <mxGeometry relative="1" as="geometry" />
        </mxCell>
        <mxCell id="rMtfNiZEHgZC2uwS-4zO-44" value="CONSULTAS" style="shape=rhombus;perimeter=rhombusPerimeter;whiteSpace=wrap;html=1;align=center;" vertex="1" parent="1">
          <mxGeometry x="460" y="403.5" width="120" height="60" as="geometry" />
        </mxCell>
        <mxCell id="rMtfNiZEHgZC2uwS-4zO-51" style="edgeStyle=none;rounded=0;orthogonalLoop=1;jettySize=auto;html=1;" edge="1" parent="1" source="rMtfNiZEHgZC2uwS-4zO-47" target="rMtfNiZEHgZC2uwS-4zO-44">
          <mxGeometry relative="1" as="geometry" />
        </mxCell>
        <mxCell id="rMtfNiZEHgZC2uwS-4zO-47" value="ID_CLIENTE" style="ellipse;whiteSpace=wrap;html=1;align=center;" vertex="1" parent="1">
          <mxGeometry x="405" y="340" width="100" height="40" as="geometry" />
        </mxCell>
        <mxCell id="rMtfNiZEHgZC2uwS-4zO-52" style="edgeStyle=none;rounded=0;orthogonalLoop=1;jettySize=auto;html=1;" edge="1" parent="1" source="rMtfNiZEHgZC2uwS-4zO-48" target="rMtfNiZEHgZC2uwS-4zO-44">
          <mxGeometry relative="1" as="geometry" />
        </mxCell>
        <mxCell id="rMtfNiZEHgZC2uwS-4zO-48" value="TIPO DE SERVICIO" style="ellipse;whiteSpace=wrap;html=1;align=center;" vertex="1" parent="1">
          <mxGeometry x="535" y="340" width="100" height="40" as="geometry" />
        </mxCell>
        <mxCell id="rMtfNiZEHgZC2uwS-4zO-54" style="edgeStyle=none;rounded=0;orthogonalLoop=1;jettySize=auto;html=1;" edge="1" parent="1" source="rMtfNiZEHgZC2uwS-4zO-49" target="rMtfNiZEHgZC2uwS-4zO-44">
          <mxGeometry relative="1" as="geometry" />
        </mxCell>
        <mxCell id="rMtfNiZEHgZC2uwS-4zO-49" value="ID_MASCOTA" style="ellipse;whiteSpace=wrap;html=1;align=center;" vertex="1" parent="1">
          <mxGeometry x="542.5" y="490" width="100" height="40" as="geometry" />
        </mxCell>
        <mxCell id="rMtfNiZEHgZC2uwS-4zO-53" style="edgeStyle=none;rounded=0;orthogonalLoop=1;jettySize=auto;html=1;" edge="1" parent="1" source="rMtfNiZEHgZC2uwS-4zO-50" target="rMtfNiZEHgZC2uwS-4zO-44">
          <mxGeometry relative="1" as="geometry" />
        </mxCell>
        <mxCell id="rMtfNiZEHgZC2uwS-4zO-50" value="ID_TICKET" style="ellipse;whiteSpace=wrap;html=1;align=center;" vertex="1" parent="1">
          <mxGeometry x="397.5" y="490" width="100" height="40" as="geometry" />
        </mxCell>
        <mxCell id="rMtfNiZEHgZC2uwS-4zO-55" value="DIAGRAMA ENTIDAD RELACION VETERINARIA" style="text;html=1;align=center;verticalAlign=middle;whiteSpace=wrap;rounded=0;fontSize=18;" vertex="1" parent="1">
          <mxGeometry x="375" y="50" width="435" height="100" as="geometry" />
        </mxCell>
        <mxCell id="rMtfNiZEHgZC2uwS-4zO-67" value="VENTAS" style="whiteSpace=wrap;html=1;align=center;" vertex="1" parent="1">
          <mxGeometry x="470" y="640" width="100" height="40" as="geometry" />
        </mxCell>
        <mxCell id="rMtfNiZEHgZC2uwS-4zO-73" style="edgeStyle=none;rounded=0;orthogonalLoop=1;jettySize=auto;html=1;" edge="1" parent="1" source="rMtfNiZEHgZC2uwS-4zO-69" target="rMtfNiZEHgZC2uwS-4zO-67">
          <mxGeometry relative="1" as="geometry" />
        </mxCell>
        <mxCell id="rMtfNiZEHgZC2uwS-4zO-69" value="ID_TICKET" style="ellipse;whiteSpace=wrap;html=1;align=center;" vertex="1" parent="1">
          <mxGeometry x="350" y="590" width="100" height="40" as="geometry" />
        </mxCell>
        <mxCell id="rMtfNiZEHgZC2uwS-4zO-74" style="edgeStyle=none;rounded=0;orthogonalLoop=1;jettySize=auto;html=1;" edge="1" parent="1" source="rMtfNiZEHgZC2uwS-4zO-70" target="rMtfNiZEHgZC2uwS-4zO-67">
          <mxGeometry relative="1" as="geometry" />
        </mxCell>
        <mxCell id="rMtfNiZEHgZC2uwS-4zO-70" value="FECHA" style="ellipse;whiteSpace=wrap;html=1;align=center;" vertex="1" parent="1">
          <mxGeometry x="350" y="700" width="100" height="40" as="geometry" />
        </mxCell>
        <mxCell id="rMtfNiZEHgZC2uwS-4zO-76" style="edgeStyle=none;rounded=0;orthogonalLoop=1;jettySize=auto;html=1;" edge="1" parent="1" source="rMtfNiZEHgZC2uwS-4zO-71" target="rMtfNiZEHgZC2uwS-4zO-67">
          <mxGeometry relative="1" as="geometry" />
        </mxCell>
        <mxCell id="rMtfNiZEHgZC2uwS-4zO-71" value="PRECIO" style="ellipse;whiteSpace=wrap;html=1;align=center;" vertex="1" parent="1">
          <mxGeometry x="610" y="590" width="100" height="40" as="geometry" />
        </mxCell>
        <mxCell id="rMtfNiZEHgZC2uwS-4zO-75" style="edgeStyle=none;rounded=0;orthogonalLoop=1;jettySize=auto;html=1;" edge="1" parent="1" source="rMtfNiZEHgZC2uwS-4zO-72" target="rMtfNiZEHgZC2uwS-4zO-67">
          <mxGeometry relative="1" as="geometry" />
        </mxCell>
        <mxCell id="rMtfNiZEHgZC2uwS-4zO-72" value="ESTADO" style="ellipse;whiteSpace=wrap;html=1;align=center;" vertex="1" parent="1">
          <mxGeometry x="610" y="700" width="100" height="40" as="geometry" />
        </mxCell>
      </root>
    </mxGraphModel>
  </diagram>
</mxfile>
